<?xml version="1.0" encoding="UTF-8"?>
<svg width="42px" height="35px" viewBox="0 0 42 35" version="1.1" xmlns="http://www.w3.org/2000/svg" xmlns:xlink="http://www.w3.org/1999/xlink">
    <!-- Generator: Sketch 52.2 (67145) - http://www.bohemiancoding.com/sketch -->
    <title>icons/amazon_buy</title>
    <desc>Created with Sketch.</desc>
    <g id="Design" stroke="none" stroke-width="1" fill="none" fill-rule="evenodd">
        <g id="PQ-One-Author-Books" transform="translate(-849.000000, -1105.000000)">
            <g id="Group-6" transform="translate(140.000000, 1014.000000)">
                <g id="basket" transform="translate(655.000000, 55.000000)">
                    <g id="icons/amazon_buy" transform="translate(54.000000, 36.000000)">
                        <path d="M27.3259162,27.6247568 C27.0949269,27.5170021 26.7525793,27.5993032 26.0935417,27.6789857 C25.3254438,27.7725434 25.3716161,27.4228772 25.3716161,27.4228772 C25.3716161,27.4228772 25.3716161,27.2835263 25.5463734,27.1667688 C25.720979,27.0504661 28.0811496,26.0758438 28.6442394,26.9458392 C29.3213574,27.9917291 27.692817,30.0978383 27.2698362,29.8687206 C26.9078878,29.6726589 27.2817394,29.2744701 27.4329935,28.7972805 C27.5828505,28.3245103 27.6641587,27.9087649 27.439701,27.7013421 C27.5977509,28.0271285 26.6435067,29.0093629 25.4232472,29.6892627 C24.1965347,30.3722186 23.0008312,30.9617684 20.1599076,30.9617684 C16.7082055,30.9617684 13.9483298,28.7655133 13.405483,28.0975691 C12.861878,27.4296249 13.0401228,27.0884502 13.0401228,27.0884502 C13.0401228,27.0884502 13.2498315,26.6766145 13.8399121,27.0884502 C14.429841,27.4993762 17.1940382,29.4408117 19.9423898,29.4408117 C22.6907413,29.4408117 24.6321769,28.7866661 25.267065,28.5567902 C26.1461048,28.2385591 27.0009539,27.5867697 27.3259162,27.6247568 Z" id="Combined-Shape" fill="#EB7C0A"></path>
                        <path d="M21.7130105,20.4442421 C21.2902572,20.4109586 20.3709052,20.3994345 18.9544237,20.6936028 C16.9359585,21.1126412 16.0043242,22.9762889 16.0043242,24.4360616 C16.0043242,25.8953036 17.4014724,27.5879091 19.4977254,27.5879091 C21.1017771,27.5879091 22.0063449,26.623522 22.341985,26.1705936 C22.4168918,26.0703641 22.5686766,26.0749889 22.6369874,26.1810563 C22.7199307,26.3107785 22.8383562,26.4824273 22.9913541,26.6716655 C23.1550422,26.8747782 23.3736972,27.0774359 23.551108,27.2290691 C23.7223019,27.3760017 23.9771973,27.3675102 24.1411128,27.2125411 L25.5307551,25.8887075 C25.6917138,25.7352548 25.7137764,25.4866521 25.5820072,25.3078766 C25.5053566,25.2042353 25.4086904,25.0703432 25.2892035,24.9017271 C24.9163375,24.3736645 24.9321831,23.9545504 24.9321831,23.9545504 L24.9321831,19.0476246 C24.9321831,18.4577715 24.5748595,16.0355829 20.8173891,16.0355829 C17.7486366,16.0355829 16.8132115,18.220693 16.5734036,19.0218469 C16.5273829,19.1752997 16.6273092,19.3329982 16.7852351,19.3594582 L18.6908094,19.6815271 C18.8063539,19.701012 18.9214435,19.6430123 18.9732262,19.5377789 C19.1823284,19.1147981 19.7896951,18.0849813 20.7393738,18.0849813 C21.935608,18.0854362 21.9820078,19.0635461 21.9820078,19.0635461 L21.9820078,20.1942747 C21.9820078,20.3401459 21.8589575,20.4556146 21.7130105,20.4442421 Z M22.0133959,22.2590639 L22.0133959,23.6897989 C22.0133959,24.4369714 21.4989803,25.0918751 20.7697763,25.253971 C20.5810688,25.2960492 20.365598,25.3210687 20.1184359,25.3210687 C18.5350821,25.3210687 18.8300845,23.2867578 19.5598192,22.6811349 C20.1131287,22.2219138 21.2368065,22.0663381 21.7487201,22.0181188 C21.8908004,22.004775 22.0133959,22.1166803 22.0133959,22.2590639 Z" id="Shape" fill="#2F343B" fill-rule="nonzero"></path>
                        <path d="M33.2703491,7 L40,7 C41.1045695,7 42,7.8954305 42,9 L42,11 C42,12.1045695 41.1045695,13 40,13 L38.9999321,13 C38.9999321,13.0559728 38.9975824,13.1119209 38.9928892,13.1676966 L37.6183541,29.5030897 C37.3568585,32.610783 34.7581585,35 31.6394829,35 L10.3606293,35 C7.24195375,35 4.64325374,32.610783 4.38175814,29.5030897 L3.00722306,13.1676966 C3.00248737,13.1114161 3.0001304,13.0554842 3.00006844,13 L2,13 C0.8954305,13 0,12.1045695 0,11 L0,9 C0,7.8954305 0.8954305,7 2,7 L8.72965086,7 L20.496129,0.136221099 C20.8074915,-0.045407033 21.1925085,-0.045407033 21.503871,0.136221099 L33.2703491,7 Z M29.3010794,7 L21,2.15770367 L12.6989206,7 L29.3010794,7 Z M5.00018013,11 L36.9999321,11 L40,11 L40,9 L2,9 L2,11 L5.00018013,11 Z M36.9999321,13 L5.00018013,13 L6.3747152,29.3353931 C6.5490456,31.4071887 8.28151228,33 10.3606293,33 L31.6394829,33 C33.7185999,33 35.4510666,31.4071887 35.625397,29.3353931 L36.9999321,13 Z" id="Combined-Shape" fill="#2F343B" fill-rule="nonzero"></path>
                    </g>
                </g>
            </g>
        </g>
    </g>
</svg>