<?xml version="1.0" encoding="UTF-8"?>
<svg width="19px" height="10px" viewBox="0 0 19 10" version="1.1" xmlns="http://www.w3.org/2000/svg" xmlns:xlink="http://www.w3.org/1999/xlink">
    <!-- Generator: Sketch 52.2 (67145) - http://www.bohemiancoding.com/sketch -->
    <title>Shape</title>
    <desc>Created with Sketch.</desc>
    <g id="Design" stroke="none" stroke-width="1" fill="none" fill-rule="evenodd">
        <g id="PQ-Blog" transform="translate(-1111.000000, -750.000000)" fill="#FFFFFF" fill-rule="nonzero">
            <g id="Group-13-Copy-3" transform="translate(940.000000, 685.000000)">
                <g id="Bitmap-Copy-7">
                    <path d="M189.73441,69.3346813 L185.54404,65.2626015 C185.189992,64.9124662 184.615799,64.9124662 184.261751,65.2626015 C183.907631,65.6128085 183.907631,66.180514 184.261751,66.530721 L186.904278,69.0720619 L171.906698,69.0720619 C171.405983,69.0720619 171,69.4735589 171,69.968741 C171,70.4638514 171.405983,70.8654202 171.906698,70.8654202 L186.904278,70.8654202 L184.261896,73.4067611 C183.907776,73.7569681 183.907776,74.3246736 184.261896,74.6748806 C184.438884,74.8498406 184.670998,74.9375 184.903041,74.9375 C185.135083,74.9375 185.367125,74.8498406 185.544185,74.6748806 L189.73441,70.6028008 C190.08853,70.2525938 190.08853,69.6848883 189.73441,69.3346813 Z" id="Shape"></path>
                </g>
            </g>
        </g>
    </g>
</svg>