<?xml version="1.0" encoding="UTF-8"?>
<svg width="12px" height="8px" viewBox="0 0 12 8" version="1.1" xmlns="http://www.w3.org/2000/svg" xmlns:xlink="http://www.w3.org/1999/xlink">
    <!-- Generator: Sketch 52.2 (67145) - http://www.bohemiancoding.com/sketch -->
    <title>down</title>
    <desc>Created with Sketch.</desc>
    <g id="Symbols" stroke="none" stroke-width="1" fill="none" fill-rule="evenodd">
        <g id="icons/arrow_down" transform="translate(-6.000000, -9.000000)" fill="#2F343B">
            <g id="icons/close">
                <path d="M11.9571858,13.6382613 L16.2073434,9.29725038 C16.5896519,8.90676953 17.2161214,8.90014449 17.6066022,9.28245294 C17.6090945,9.28489301 17.6115738,9.28734625 17.6140401,9.28981254 L17.6214783,9.2972508 C18.0090856,9.68485812 18.012403,10.312263 17.6289162,10.7039474 L12.7744375,15.6621977 C12.7438802,15.7042541 12.7096438,15.7444613 12.6717309,15.7823743 L12.6642926,15.7898125 C12.4691902,15.9849149 12.2128832,16.0815097 11.9571761,16.0795969 C11.7049645,16.0814952 11.4519773,15.9875627 11.2575169,15.7971721 C11.2550246,15.7947321 11.2525453,15.7922788 11.250079,15.7898125 L11.2426408,15.7823743 C11.2047278,15.7444613 11.1704915,15.7042541 11.1399341,15.6621977 L6.28545546,10.7039474 C5.9019686,10.312263 5.90528598,9.68485812 6.2928933,9.2972508 L6.30033156,9.28981254 C6.68674782,8.90339628 7.31325235,8.90339628 7.69966861,9.28981254 C7.7021349,9.29227883 7.70458814,9.29475815 7.70702821,9.29725038 L11.9571858,13.6382613 Z" id="down"></path>
            </g>
        </g>
    </g>
</svg>