<?xml version="1.0" encoding="UTF-8"?>
<svg width="8px" height="10px" viewBox="0 0 8 10" version="1.1" xmlns="http://www.w3.org/2000/svg" xmlns:xlink="http://www.w3.org/1999/xlink">
    <!-- Generator: Sketch 52.2 (67145) - http://www.bohemiancoding.com/sketch -->
    <title>Path</title>
    <desc>Created with Sketch.</desc>
    <g id="Design" stroke="none" stroke-width="1" fill="none" fill-rule="evenodd">
        <g id="PQ-All-topics" transform="translate(-126.000000, -378.000000)" fill="#4092F2">
            <path d="M132.189781,382.219178 L131.884834,383.808219 L133.5588,383.808219 L133.5588,385.219178 L131.631792,385.219178 L131.132198,388 L129.704785,388 L130.210868,385.219178 L128.952149,385.219178 L128.459043,388 L127.064071,388 L127.544201,385.219178 L126,385.219178 L126,383.808219 L127.797242,383.808219 L128.10219,382.219178 L126.467153,382.219178 L126.467153,380.787671 L128.342255,380.787671 L128.841849,378 L130.262774,378 L129.763179,380.787671 L131.047851,380.787671 L131.553933,378 L132.948905,378 L132.442822,380.787671 L134,380.787671 L134,382.219178 L132.189781,382.219178 Z M129.205191,383.808219 L130.476886,383.808219 L130.781833,382.219178 L129.510138,382.219178 L129.205191,383.808219 Z" id="#"></path>
        </g>
    </g>
</svg>