<?xml version="1.0" encoding="UTF-8"?>
<svg width="21px" height="19px" viewBox="0 0 21 19" version="1.1" xmlns="http://www.w3.org/2000/svg" xmlns:xlink="http://www.w3.org/1999/xlink">
    <!-- Generator: Sketch 53.1 (72631) - https://sketchapp.com -->
    <title>icons/heart-outline</title>
    <desc>Created with Sketch.</desc>
    <g id="icons/heart-outline" stroke="none" stroke-width="1" fill="none" fill-rule="evenodd">
        <g fill="#8E98A5" fill-rule="nonzero" id="Path">
            <path d="M17.417585,8.82943812 C18.8292737,7.37787882 18.8292629,4.98769814 17.4172775,3.5353031 C16.7431237,2.84183769 15.8647289,2.4677027 14.9227184,2.4677027 C13.9804329,2.4677027 13.1017561,2.84189472 12.4275456,3.53517427 L10.4762728,5.54265143 L9.04212544,4.06719504 L8.52514213,3.53532056 C7.8510598,2.84196354 6.9722214,2.4677027 6.0301438,2.4677027 C5.08808703,2.4677027 4.2091936,2.84198327 3.53526614,3.53525072 C2.12336862,4.98766151 2.12336862,7.37790764 3.53520298,8.82968745 L10.4762706,15.9692807 L17.417585,8.82943812 Z M10.4762728,2.67320025 L11.494454,1.68352555 C12.468811,0.895062245 13.6636981,0.467702703 14.9227184,0.467702703 C16.4068549,0.467702703 17.8019011,1.06172018 18.8512996,2.14117948 C21.0179701,4.36985793 21.0179701,7.99601381 18.8513524,10.2238237 L11.088136,18.2090755 C10.9208804,18.3815479 10.7008988,18.4677027 10.4812867,18.4677027 C10.4254997,18.4677027 10.3698182,18.4624911 10.3144533,18.4512535 C10.1493616,18.4203637 9.99134223,18.3401263 9.8644095,18.2090755 L2.10119314,10.2238237 C-0.0653189849,7.99601381 -0.0653189849,4.36985793 2.10119314,2.14117948 C3.1505389,1.06172018 4.54616559,0.467702703 6.0301438,0.467702703 C7.28862583,0.467702703 8.48345768,0.89487918 9.45757032,1.68301892 L10.4762728,2.67320025 Z"></path>
        </g>
    </g>
</svg>