<?xml version="1.0" encoding="UTF-8"?>
<svg width="21px" height="19px" viewBox="0 0 21 19" version="1.1" xmlns="http://www.w3.org/2000/svg" xmlns:xlink="http://www.w3.org/1999/xlink">
    <!-- Generator: Sketch 53.1 (72631) - https://sketchapp.com -->
    <title>icons/heart-fill</title>
    <desc>Created with Sketch.</desc>
    <defs>
        <linearGradient x1="90.9333333%" y1="94.1903114%" x2="25%" y2="14.1712803%" id="linearGradient-1">
            <stop stop-color="#D848B3" offset="1%"></stop>
            <stop stop-color="#F28577" offset="100%"></stop>
        </linearGradient>
    </defs>
    <g id="icons/heart-fill" stroke="none" stroke-width="1" fill="none" fill-rule="evenodd">
        <g id="icons/heart-outline" fill="url(#linearGradient-1)">
            <path d="M18.8512996,2.14117948 C17.8019011,1.06172018 16.4068549,0.467702703 14.9227184,0.467702703 C13.4383707,0.467702703 12.0431663,1.06172018 10.9933983,2.14117948 L10.4762728,2.67320025 L9.95914723,2.14117948 C8.90969592,1.06172018 7.51417478,0.467702703 6.0301438,0.467702703 C4.54616559,0.467702703 3.1505389,1.06172018 2.10119314,2.14117948 C-0.0653189849,4.36985793 -0.0653189849,7.99601381 2.10119314,10.2238237 L9.8644095,18.2090755 C9.99134223,18.3401263 10.1493616,18.4203637 10.3144533,18.4512535 C10.3698182,18.4624911 10.4254997,18.4677027 10.4812867,18.4677027 C10.7008988,18.4677027 10.9208804,18.3815479 11.088136,18.2090755 L18.8513524,10.2238237 C21.0179701,7.99601381 21.0179701,4.36985793 18.8512996,2.14117948 Z" id="Path"></path>
        </g>
    </g>
</svg>