<?xml version="1.0" encoding="UTF-8"?>
<svg width="21px" height="32px" viewBox="0 0 21 32" version="1.1" xmlns="http://www.w3.org/2000/svg" xmlns:xlink="http://www.w3.org/1999/xlink">
    <!-- Generator: Sketch 52.1 (67048) - http://www.bohemiancoding.com/sketch -->
    <title>Group 5</title>
    <desc>Created with Sketch.</desc>
    <g id="Design" stroke="none" stroke-width="1" fill="none" fill-rule="evenodd">
        <g id="PQ-Home-5.3" transform="translate(-140.000000, -694.000000)" fill="#D2DDE7" fill-rule="nonzero">
            <g id="Group-5" transform="translate(140.000000, 694.000000)">
                <path d="M11,14.9499909 L11,19.5 C11,19.7761424 10.7761424,20 10.5,20 C10.2238576,20 10,19.7761424 10,19.5 L10,14.9499909 C8.85887984,14.7183558 8,13.709479 8,12.5 L8,10.5 C8,9.11928813 9.11928813,8 10.5,8 C11.8807119,8 13,9.11928813 13,10.5 L13,12.5 C13,13.709479 12.1411202,14.7183558 11,14.9499909 Z M10,2 C5.581722,2 2,5.581722 2,10 L2,22 C2,26.418278 5.581722,30 10,30 L11,30 C15.418278,30 19,26.418278 19,22 L19,10 C19,5.581722 15.418278,2 11,2 L10,2 Z M10,0 L11,0 C16.5228475,-1.01453063e-15 21,4.4771525 21,10 L21,22 C21,27.5228475 16.5228475,32 11,32 L10,32 C4.4771525,32 6.76353751e-16,27.5228475 0,22 L0,10 C-6.76353751e-16,4.4771525 4.4771525,1.01453063e-15 10,0 Z" id="Combined-Shape"></path>
            </g>
        </g>
    </g>
</svg>