<?xml version="1.0" encoding="UTF-8"?>
<svg width="27px" height="33px" viewBox="0 0 27 33" version="1.1" xmlns="http://www.w3.org/2000/svg" xmlns:xlink="http://www.w3.org/1999/xlink">
    <!-- Generator: Sketch 52.2 (67145) - http://www.bohemiancoding.com/sketch -->
    <title>Combined Shape</title>
    <desc>Created with Sketch.</desc>
    <g id="Design" stroke="none" stroke-width="1" fill="none" fill-rule="evenodd">
        <g id="PQ-Add-Quote" transform="translate(-415.000000, -1566.000000)" fill="#2F343B" fill-rule="nonzero">
            <g id="Comments" transform="translate(140.000000, 109.000000)">
                <g id="field-copy-4" transform="translate(0.000000, 1219.000000)">
                    <path d="M288.624592,264.85086 C294.997903,264.015265 299.918215,258.563156 299.918215,251.961846 C299.918215,251.409561 300.365931,250.961846 300.918215,250.961846 C301.4705,250.961846 301.918215,251.409561 301.918215,251.961846 C301.918215,259.479446 296.387988,265.705393 289.173846,266.793372 L293.193126,269.057575 C293.66925,269.325793 293.837792,269.929201 293.569574,270.405326 C293.567862,270.408365 293.566134,270.411394 293.56439,270.414415 L293.55913,270.423525 C293.285051,270.898245 292.679883,271.063834 292.202291,270.794789 L286.156557,267.389012 C286.108025,267.370381 286.060327,267.347718 286.013893,267.320909 L286.004783,267.31565 C285.765833,267.177692 285.606192,266.955119 285.541858,266.707629 C285.474747,266.464503 285.500001,266.195825 285.633574,265.958714 C285.635286,265.955675 285.637014,265.952645 285.638758,265.949624 L285.644017,265.940514 C285.670826,265.894081 285.700802,265.850605 285.733517,265.810203 L289.266387,259.837848 C289.545472,259.366052 290.152357,259.206872 290.627077,259.480952 L290.636187,259.486212 C291.109448,259.759449 291.271599,260.364606 290.998362,260.837868 C290.996618,260.840888 290.994858,260.843899 290.993082,260.846901 L288.624592,264.85086 Z M288.293623,244.072831 C281.920312,244.908427 277,250.360536 277,256.961846 C277,257.51413 276.552285,257.961846 276,257.961846 C275.447715,257.961846 275,257.51413 275,256.961846 C275,249.444245 280.530228,243.218299 287.744369,242.130319 L283.72509,239.866116 C283.248965,239.597898 283.080424,238.99449 283.348641,238.518366 C283.350353,238.515327 283.352081,238.512297 283.353825,238.509277 L283.359085,238.500167 C283.633165,238.025447 284.238333,237.859858 284.715924,238.128902 L290.761658,241.534679 C290.81019,241.55331 290.857888,241.575974 290.904322,241.602782 L290.913432,241.608042 C291.152383,241.746 291.312023,241.968573 291.376357,242.216062 C291.443468,242.459188 291.418214,242.727867 291.284641,242.964978 C291.282929,242.968017 291.281201,242.971047 291.279457,242.974067 L291.274198,242.983177 C291.247389,243.029611 291.217413,243.073087 291.184699,243.113488 L287.651828,249.085844 C287.372744,249.557639 286.765859,249.716819 286.291138,249.442739 L286.282028,249.43748 C285.808767,249.164242 285.646616,248.559085 285.919853,248.085824 C285.921597,248.082803 285.923357,248.079792 285.925133,248.07679 L288.293623,244.072831 Z" id="Combined-Shape"></path>
                </g>
            </g>
        </g>
    </g>
</svg>